<?xml version="1.0" encoding="UTF-8" standalone="no"?>
<!-- Created with Inkscape (http://www.inkscape.org/) -->

<svg
   xmlns:dc="http://purl.org/dc/elements/1.1/"
   xmlns:cc="http://creativecommons.org/ns#"
   xmlns:rdf="http://www.w3.org/1999/02/22-rdf-syntax-ns#"
   xmlns:svg="http://www.w3.org/2000/svg"
   xmlns="http://www.w3.org/2000/svg"
   xmlns:sodipodi="http://sodipodi.sourceforge.net/DTD/sodipodi-0.dtd"
   xmlns:inkscape="http://www.inkscape.org/namespaces/inkscape"
   width="196.58908mm"
   height="51.215771mm"
   viewBox="0 0 196.58908 51.215771"
   version="1.1"
   id="svg8"
   sodipodi:docname="logosvg.svg"
   inkscape:version="0.92.2 (5c3e80d, 2017-08-06)">
  <defs
     id="defs2" />
  <sodipodi:namedview
     id="base"
     pagecolor="#ffffff"
     bordercolor="#666666"
     borderopacity="1.0"
     inkscape:pageopacity="0.0"
     inkscape:pageshadow="2"
     inkscape:zoom="0.7"
     inkscape:cx="363.11236"
     inkscape:cy="116.85631"
     inkscape:document-units="mm"
     inkscape:current-layer="layer1"
     showgrid="false"
     fit-margin-top="0"
     fit-margin-left="0"
     fit-margin-right="0"
     fit-margin-bottom="0"
     inkscape:window-width="1280"
     inkscape:window-height="971"
     inkscape:window-x="2638"
     inkscape:window-y="-8"
     inkscape:window-maximized="1" />
  <metadata
     id="metadata5">
    <rdf:RDF>
      <cc:Work
         rdf:about="">
        <dc:format>image/svg+xml</dc:format>
        <dc:type
           rdf:resource="http://purl.org/dc/dcmitype/StillImage" />
        <dc:title></dc:title>
      </cc:Work>
    </rdf:RDF>
  </metadata>
  <g
     inkscape:label="Layer 1"
     inkscape:groupmode="layer"
     id="layer1"
     transform="translate(-44.341567,-161.95179)">
    <g
       aria-label="andrewfishergis"
       transform="matrix(0.26458333,0,0,0.26458333,-1.0153543,58.669595)"
       style="font-style:normal;font-weight:normal;font-size:53.33333588px;line-height:1.25;font-family:sans-serif;letter-spacing:0px;word-spacing:0px;fill:#000000;fill-opacity:1;stroke:none"
       id="flowRoot815">
      <path
         d="m 171.42773,509.71953 z m 46.93334,0 -19.36,-30.24 -19.68,30.24 h -7.89334 l 24.96001,-37.54666 h 5.17333 l 24.8,37.54666 z"
         style="font-style:normal;font-variant:normal;font-weight:normal;font-stretch:normal;font-family:Pirulen;-inkscape-font-specification:Pirulen"
         id="path841" />
      <path
         d="m 229.79024,509.71953 z m 46.24,0 -40.05334,-29.22666 v 29.22666 h -6.18666 v -37.54666 h 6.13333 l 37.38667,27.89333 v -27.89333 h 6.18667 v 37.54666 z"
         style="font-style:normal;font-variant:normal;font-weight:normal;font-stretch:normal;font-family:Pirulen;-inkscape-font-specification:Pirulen"
         id="path843" />
      <path
         d="m 286.4569,509.71953 z m 0,0 v -37.54666 h 34.4 q 4,0 6.66667,0.69333 2.66667,0.69333 4.26667,2.08 1.6,1.38667 2.24,3.46667 0.69333,2.08 0.69333,4.85333 v 15.73333 q 0,2.66667 -0.69333,4.69334 -0.64,1.97333 -2.24,3.30666 -1.6,1.33334 -4.26667,2.02667 -2.66667,0.69333 -6.66667,0.69333 z m 41.17334,-26.45333 q 0,-1.6 -0.32,-2.66667 -0.32,-1.06666 -1.12,-1.70666 -0.74667,-0.64 -2.08,-0.90667 -1.28,-0.26667 -3.25334,-0.26667 h -27.30667 v 26.45334 h 27.30667 q 1.97334,0 3.25334,-0.26667 1.33333,-0.26667 2.08,-0.85333 0.8,-0.58667 1.12,-1.6 0.32,-1.01334 0.32,-2.50667 z"
         style="font-style:normal;font-variant:normal;font-weight:normal;font-stretch:normal;font-family:Pirulen;-inkscape-font-specification:Pirulen"
         id="path845" />
      <path
         d="m 341.35274,509.71953 z m 35.68001,0 -8.8,-16.74666 h -19.78667 v 16.74666 h -7.09334 v -37.54666 h 31.89334 q 3.2,0 5.44,0.69333 2.24,0.64 3.62667,1.86667 1.44,1.17333 2.08,2.82666 0.64,1.65334 0.64,3.68 v 2.66667 q 0,3.62667 -2.13334,6.08 -2.13333,2.4 -7.14666,2.88 l 8.85333,16.85333 z m 0.90666,-28.53333 q 0,-3.46667 -4.69333,-3.46667 h -24.8 v 9.70667 h 24.8 q 4.69333,0 4.69333,-3.46667 z"
         style="font-style:normal;font-variant:normal;font-weight:normal;font-stretch:normal;font-family:Pirulen;-inkscape-font-specification:Pirulen"
         id="path847" />
      <path
         d="m 390.72774,509.71953 z m 0,0 v -37.54666 h 38.61334 v 5.54666 h -31.52 v 9.38667 h 29.92 v 5.54667 h -29.92 v 11.52 h 31.52 v 5.54666 z"
         style="font-style:normal;font-variant:normal;font-weight:normal;font-stretch:normal;font-family:Pirulen;-inkscape-font-specification:Pirulen"
         id="path849" />
      <path
         d="m 431.94858,509.71953 z m 48.74667,0 -13.01334,-28.8 -13.28,28.8 h -5.17333 l -17.28,-37.54666 h 6.82666 l 13.06667,28.8 13.17334,-28.8 h 5.28 l 13.01333,28.8 13.17333,-28.8 h 6.88 l -17.33333,37.54666 z"
         style="font-style:normal;font-variant:normal;font-weight:normal;font-stretch:normal;font-family:Pirulen;-inkscape-font-specification:Pirulen"
         id="path851" />
      <path
         d="m 506.87359,509.71953 z m 7.09333,-15.46666 v 15.46666 h -7.09333 v -37.54666 h 38.61333 v 5.54666 h -31.52 v 10.98667 h 29.38667 v 5.54667 z"
         style="font-style:normal;font-variant:normal;font-weight:normal;font-stretch:normal;font-family:Pirulen;-inkscape-font-specification:Pirulen"
         id="path853" />
      <path
         d="m 549.64025,509.71953 z m 0,0 v -37.54666 h 7.09334 v 37.54666 z"
         style="font-style:normal;font-variant:normal;font-weight:normal;font-stretch:normal;font-family:Pirulen;-inkscape-font-specification:Pirulen"
         id="path855" />
      <path
         d="m 563.21027,509.71953 z m 1.22666,0 v -5.54666 h 32.64 q 4.69334,0 4.69334,-3.46667 v -4.74667 q 0,-3.46666 -4.69334,-3.46666 h -22.08 q -3.2,0 -5.44,-0.64 -2.24,-0.69334 -3.68,-1.86667 -1.38666,-1.22667 -2.02666,-2.88 -0.64,-1.65333 -0.64,-3.68 v -2.18667 q 0,-2.02666 0.64,-3.68 0.64,-1.65333 2.02666,-2.82666 1.44,-1.22667 3.68,-1.86667 2.24,-0.69333 5.44,-0.69333 h 31.78667 v 5.54666 h -31.78667 q -4.69333,0 -4.69333,3.46667 v 2.29333 q 0,3.46667 4.69333,3.46667 h 22.08 q 3.2,0 5.44,0.69333 2.24,0.64 3.62667,1.86667 1.44,1.17333 2.08,2.82667 0.64,1.65333 0.64,3.68 v 4.64 q 0,2.02666 -0.64,3.68 -0.64,1.65333 -2.08,2.88 -1.38667,1.17333 -3.62667,1.86666 -2.24,0.64 -5.44,0.64 z"
         style="font-style:normal;font-variant:normal;font-weight:normal;font-stretch:normal;font-family:Pirulen;-inkscape-font-specification:Pirulen"
         id="path857" />
      <path
         d="m 614.68609,509.71953 z m 37.81333,0 v -17.06666 h -30.72 v 17.06666 h -7.09333 v -37.54666 h 7.09333 v 14.93333 h 30.72 v -14.93333 h 7.09334 v 37.54666 z"
         style="font-style:normal;font-variant:normal;font-weight:normal;font-stretch:normal;font-family:Pirulen;-inkscape-font-specification:Pirulen"
         id="path859" />
      <path
         d="m 666.56109,509.71953 z m 0,0 v -37.54666 h 38.61333 v 5.54666 h -31.52 v 9.38667 h 29.92 v 5.54667 h -29.92 v 11.52 h 31.52 v 5.54666 z"
         style="font-style:normal;font-variant:normal;font-weight:normal;font-stretch:normal;font-family:Pirulen;-inkscape-font-specification:Pirulen"
         id="path861" />
      <path
         d="m 711.24859,509.71953 z m 35.68,0 -8.8,-16.74666 h -19.78667 v 16.74666 h -7.09333 v -37.54666 h 31.89333 q 3.2,0 5.44,0.69333 2.24,0.64 3.62667,1.86667 1.44,1.17333 2.08,2.82666 0.64,1.65334 0.64,3.68 v 2.66667 q 0,3.62667 -2.13333,6.08 -2.13334,2.4 -7.14667,2.88 l 8.85333,16.85333 z m 0.90667,-28.53333 q 0,-3.46667 -4.69334,-3.46667 h -24.8 v 9.70667 h 24.8 q 4.69334,0 4.69334,-3.46667 z"
         style="font-style:normal;font-variant:normal;font-weight:normal;font-stretch:normal;font-family:Pirulen;-inkscape-font-specification:Pirulen"
         id="path863" />
      <path
         d="m 760.35692,509.71953 z m 13.38667,0 q -13.38667,0 -13.38667,-8.10666 v -21.33334 q 0,-8.10666 13.38667,-8.10666 h 29.38667 v 5.54666 h -29.38667 q -6.29333,0 -6.29333,2.56 v 21.33334 q 0,2.56 6.29333,2.56 h 16.58667 q 6.29333,0 6.29333,-2.45334 v -12.48 h 7.09333 v 12.48 q 0,8 -13.38666,8 z"
         style="fill:#0023a5;fill-opacity:1"
         id="path865" />
      <path
         d="m 810.57775,509.71953 z m 0,0 v -37.54666 h 7.09334 v 37.54666 z"
         style="fill:#0023a5;fill-opacity:1"
         id="path867" />
      <path
         d="m 824.1478,509.71953 z m 1.22666,0 v -5.54666 h 32.64 q 4.69334,0 4.69334,-3.46667 v -4.74667 q 0,-3.46666 -4.69334,-3.46666 h -22.08 q -3.2,0 -5.44,-0.64 -2.24,-0.69334 -3.68,-1.86667 -1.38666,-1.22667 -2.02666,-2.88 -0.64,-1.65333 -0.64,-3.68 v -2.18667 q 0,-2.02666 0.64,-3.68 0.64,-1.65333 2.02666,-2.82666 1.44,-1.22667 3.68,-1.86667 2.24,-0.69333 5.44,-0.69333 h 31.78667 v 5.54666 h -31.78667 q -4.69333,0 -4.69333,3.46667 v 2.29333 q 0,3.46667 4.69333,3.46667 h 22.08 q 3.2,0 5.44,0.69333 2.24,0.64 3.62667,1.86667 1.44,1.17333 2.08,2.82667 0.64,1.65333 0.64,3.68 v 4.64 q 0,2.02666 -0.64,3.68 -0.64,1.65333 -2.08,2.88 -1.38667,1.17333 -3.62667,1.86666 -2.24,0.64 -5.44,0.64 z"
         style="fill:#0023a5;fill-opacity:1"
         id="path869" />
    </g>
    <path
       id="path829"
       style="fill:#e3ea00;fill-opacity:1;stroke:none;stroke-width:0.26458332px;stroke-linecap:butt;stroke-linejoin:miter;stroke-opacity:1"
       d="m 216.63897,213.16756 20.96364,-23.69769 -20.86244,-27.51808 m 0,0 24.19048,27.59226 -24.29168,23.62351"
       inkscape:connector-curvature="0" />
  </g>
</svg>
